<svg width="889" height="651" viewBox="0 0 889 651" fill="none" xmlns="http://www.w3.org/2000/svg">
<path fill-rule="evenodd" clip-rule="evenodd" d="M472.999 -239.517L488.203 -247.944L594.289 -184.498L611.059 -174.381L618.43 -169.923L627.394 -164.49C636.678 -158.842 646.5 -152.758 656.075 -146.231C657.421 -145.315 658.763 -144.388 660.101 -143.451C665.573 -139.582 670.831 -135.491 675.84 -131.208C680.843 -126.929 685.602 -122.454 690.08 -117.812C698.966 -108.57 707.551 -98.0284 716.324 -85.5818C721.704 -77.9496 727.047 -70.0036 732.271 -62.1646L736.164 -56.3119C737.645 -54.0839 739.126 -51.855 740.61 -49.6299L742.039 -47.499C750.581 -34.8372 758.545 -24.3896 766.344 -15.6156C775.541 -5.26669 785.537 3.24898 796.074 9.71599L797.184 10.3884C808.13 16.934 820.773 21.9373 834.762 25.2588C847.022 28.1712 860.485 30.2708 877.13 31.8655L891.667 33.2467C901.298 34.1687 911.084 35.1505 920.607 36.3315C935.827 38.218 949.281 40.8656 961.736 44.4224C974.229 48.0064 986.71 52.9312 998.829 59.0555C1009.45 64.4647 1019.84 70.3818 1029.62 76.101L1033.31 78.2708C1043.55 84.304 1053.76 90.3555 1063.95 96.3999L1170.51 160.115L1170.21 177.455L1059.32 111.137C1054.46 108.251 1049.59 105.366 1044.72 102.482L1033.27 95.7073L1025.53 91.1368L1022.95 89.6206C1011.43 82.8817 1001.4 77.2657 990.824 72.1399C978.532 66.2192 965.672 61.6643 952.604 58.6013C939.976 55.6428 926.077 53.5596 910.109 52.2333C902.874 51.6317 895.493 51.1186 888.214 50.6359L874.416 49.7295L865.753 49.1452C863.71 49.0024 861.706 48.8469 859.737 48.6812C845.94 47.5156 833.935 45.7762 823.189 43.3912C809.658 40.3886 797.444 35.7339 786.87 29.5504L785.831 28.9344C775.142 22.5119 765.05 13.8395 755.833 3.15636C747.643 -6.33647 739.44 -17.6506 730.751 -31.4331C728.838 -34.4663 726.934 -37.5112 725.032 -40.5592L718.508 -51.0253C714.807 -56.9506 711.038 -62.947 707.266 -68.7803C698.638 -82.1253 690.338 -93.3177 681.893 -102.998C673.133 -113.038 663.196 -122.181 652.359 -130.176C641.636 -138.029 630.323 -145.099 619.695 -151.57C611.582 -156.501 603.471 -161.401 595.374 -166.286L586.533 -171.618L472.999 -239.517ZM505.422 -257.496L603.022 -199.126C611.286 -194.146 619.568 -189.156 627.857 -184.142L636.148 -179.119C646.081 -173.087 657.755 -165.9 669.015 -158.323C680.177 -150.77 690.525 -142.556 699.772 -133.908C709.168 -125.089 718.428 -114.959 727.297 -103.799C734.702 -94.4824 741.996 -84.6148 749.099 -74.9098L752.78 -69.8717C762.505 -56.5597 770.944 -46.1926 779.338 -37.2455C788.701 -27.2648 798.76 -18.9508 809.258 -12.5128L810.463 -11.7828C821.404 -5.24522 833.934 -0.0695267 847.704 3.59966C859.567 6.75982 872.759 9.29998 889.222 11.596L895.202 12.4316C907.211 14.1166 919.478 15.9016 931.461 18.094C945.593 20.6811 959.003 24.1209 971.313 28.3174C983.567 32.5167 995.471 37.7058 1007.7 44.1838C1019.74 50.5794 1031.3 57.2985 1042.01 63.6056L1051.03 68.9418C1055.84 71.7859 1060.65 74.6312 1065.45 77.4785L1074.65 82.9409L1109.08 103.529L1170.84 140.461L1170.53 157.799L1079.41 103.303L1078.41 102.704C1074.98 100.651 1071.55 98.6028 1068.12 96.5466C1060.62 92.0982 1053.12 87.6479 1045.61 83.2049L1034.26 76.5079L1030.62 74.3687C1020.82 68.6354 1010.4 62.7012 999.726 57.2672C987.497 51.0872 974.899 46.118 962.279 42.495C949.725 38.9097 936.172 36.2424 920.846 34.3428C910.111 33.0112 899.055 31.9338 888.263 30.9096L877.314 29.8716C860.764 28.2852 847.389 26.2004 835.217 23.3088C821.812 20.1208 809.668 15.3777 799.106 9.20129L798.016 8.55508C787.315 2.12533 777.163 -6.45208 767.846 -16.9398C759.657 -26.1558 751.295 -37.2104 742.281 -50.7352L740.057 -54.0742L737.836 -57.4153C731.381 -67.1262 724.706 -77.1681 717.966 -86.7301C709.133 -99.2567 700.485 -109.875 691.527 -119.196C687.253 -123.626 682.716 -127.9 677.961 -132.008C672.651 -136.599 667.071 -140.975 661.246 -145.091C659.886 -146.043 658.521 -146.988 657.15 -147.921C647.5 -154.497 637.694 -160.568 628.44 -166.195L627.105 -167.003C622.096 -170.044 617.086 -173.076 612.081 -176.1L595.269 -186.243L490.218 -249.069L505.422 -257.496ZM522.654 -267.049L611.766 -213.756C620.035 -208.777 628.32 -203.789 636.613 -198.778L647.966 -191.904C656.632 -186.635 667.327 -180.054 677.926 -173.183C684.346 -168.992 690.349 -164.792 696.046 -160.514L698.317 -158.8L698.868 -158.372C702.487 -155.585 705.99 -152.762 709.388 -149.879C719.158 -141.58 728.869 -132.186 738.248 -121.958C740.437 -119.567 742.603 -117.154 744.773 -114.694L746.401 -112.839C751.293 -107.245 756.246 -101.376 761.599 -94.9313L765.988 -89.6311L766.74 -88.726C776.512 -76.97 784.864 -67.7422 792.9 -59.8142C794.463 -58.2701 796.045 -56.7774 797.637 -55.3168L798.834 -54.227C799.385 -53.7289 799.931 -53.2173 800.485 -52.7281L801.397 -51.946C808.43 -45.818 815.694 -40.4356 823.105 -35.8938L824.428 -35.0931C835.349 -28.566 847.72 -23.1533 861.2 -19.0037C863.321 -18.3498 865.497 -17.7096 867.739 -17.0769L869.521 -16.579C878.503 -14.099 888.533 -11.7553 900.374 -9.36108L901.564 -9.12149C914.674 -6.49252 928.682 -3.58002 942.276 -0.105253C943.967 0.33005 945.65 0.776339 947.323 1.23221C959.034 4.42951 970.282 8.15247 980.826 12.3228C992.549 16.9855 1004.24 22.5457 1016.57 29.3198C1023.01 32.8819 1029.48 36.5575 1035.84 40.2105L1044.7 45.3041L1050.83 48.8333L1171.2 120.82L1170.89 138.156L1076.89 81.9365L1066.47 75.7601C1061.67 72.9107 1056.86 70.0638 1052.04 67.2167C1049.04 65.4377 1046.04 63.6548 1043.03 61.8781L1039.42 59.7575C1029.73 54.0673 1019.38 48.1147 1008.65 42.4113C996.322 35.8852 984.324 30.6534 971.967 26.4214C959.562 22.1916 946.058 18.7274 931.828 16.1224C918.808 13.7397 905.473 11.8404 892.494 10.0277L889.506 9.61072C873.123 7.32678 860.007 4.79968 848.226 1.66068C834.636 -1.95865 822.279 -7.06219 811.498 -13.5049L811.244 -13.6573C800.561 -20.0762 790.321 -28.4726 780.803 -38.6179C772.874 -47.071 764.896 -56.8095 755.81 -69.1387L754.334 -71.1503L750.783 -76.0087C743.649 -85.7594 736.321 -95.6743 728.871 -105.049C719.933 -116.292 710.605 -126.493 701.146 -135.372C691.821 -144.093 681.39 -152.374 670.142 -159.986C658.952 -167.52 647.693 -174.458 637.192 -180.834C629.092 -185.75 620.995 -190.637 612.911 -195.511L604.023 -200.868L507.452 -258.622L522.654 -267.049ZM524.678 -268.17L539.882 -276.597L653.719 -208.511L658.495 -205.559L669.108 -199.009C674.976 -195.384 680.932 -191.69 686.798 -187.996C698.815 -180.373 709.309 -173.066 718.881 -165.661C728.9 -157.906 739.022 -149.183 748.966 -139.737L750.646 -138.131C759.864 -129.283 768.652 -120.25 775.671 -112.924L780.075 -108.325C787.484 -100.622 796.766 -91.2228 806.519 -82.4556C808.417 -80.7483 810.333 -79.1033 812.258 -77.4872C820.366 -70.6637 828.664 -64.6335 837.019 -59.5259L838.523 -58.6126C849.379 -52.1202 861.563 -46.4254 874.738 -41.686C887.153 -37.2182 899.875 -33.4702 910.204 -30.5751L916.886 -28.7165C931.306 -24.693 942.505 -21.326 952.859 -17.9071C965.917 -13.5858 978.491 -8.73101 990.23 -3.47762C1001.36 1.53238 1012.87 7.41538 1025.42 14.5078C1031.34 17.8737 1037.31 21.3176 1043.18 24.7166L1056.06 32.181C1057.23 32.8603 1058.41 33.5387 1059.58 34.2155L1171.53 101.172L1171.23 118.507L1051.85 47.1073L1045.44 43.4224L1039.33 39.9008C1032.15 35.7734 1024.83 31.5987 1017.54 27.5685C1005.11 20.7409 993.344 15.1462 981.563 10.4623C980.047 9.86301 978.517 9.27241 976.973 8.69245C966.164 4.62537 954.683 1.02076 942.773 -2.0422C933.679 -4.36679 924.414 -6.43508 915.352 -8.33828C912.33 -8.97302 909.33 -9.5906 906.368 -10.1919L900.718 -11.333L898.31 -11.8253C886.795 -14.2013 877.034 -16.5309 868.295 -18.9975C866.066 -19.6266 863.902 -20.2654 861.789 -20.9169C848.449 -25.025 836.224 -30.3722 825.454 -36.8095L825.194 -36.9656C814.521 -43.3789 804.129 -51.5435 794.304 -61.2371L793.132 -62.4015C785.299 -70.2286 777.099 -79.3601 767.495 -90.9468L764.878 -94.1104C755.809 -105.061 747.945 -114.332 739.722 -123.31C730.29 -133.596 720.52 -143.048 710.682 -151.403C709.003 -152.828 707.297 -154.237 705.566 -155.635L703.334 -157.426C701.671 -158.744 699.97 -160.051 698.253 -161.352C692.222 -165.92 685.856 -170.395 679.016 -174.86L677.128 -176.08C665.8 -183.381 654.579 -190.238 645.944 -195.47C634.881 -202.173 623.824 -208.83 612.766 -215.488L524.678 -268.17ZM557.109 -286.143L662.465 -223.131L669.397 -218.873L676.34 -214.619C682.773 -210.68 689.211 -206.736 695.639 -202.759L697.863 -201.373C709.598 -194.034 719.298 -187.598 728.234 -181.224C738.6 -173.824 749.075 -165.676 759.369 -157.006L761.121 -155.526C771.026 -147.126 780.546 -138.584 788.058 -131.767L791.942 -128.243C799.695 -121.226 809.424 -112.595 819.648 -104.287C829.982 -95.8914 840.063 -88.7239 850.41 -82.422L851.928 -81.5051L852.151 -81.3713C863.107 -74.82 874.761 -68.9945 887.777 -63.5618L889.904 -62.6796C901.607 -57.8582 913.381 -53.5484 922.897 -50.1583L929.726 -47.7287C939.508 -44.2335 951.414 -39.8841 963.141 -35.2112C975.757 -30.1814 987.988 -24.7418 999.491 -19.042L1001.36 -18.111C1011.34 -13.1034 1021.85 -7.39611 1034.24 -0.25701C1038.63 2.28486 1043.01 4.8368 1047.39 7.39189L1053.96 11.226C1058.75 14.0238 1063.53 16.8208 1068.32 19.5991L1171.88 81.539L1171.58 98.8684L1060.6 32.4926L1055.45 29.5167L1041.43 21.3867C1036.45 18.5069 1031.41 15.6095 1026.41 12.7647C1013.81 5.64216 1002.24 -0.267477 991.055 -5.30392C979.254 -10.585 966.616 -15.4649 953.493 -19.8075L951.319 -20.5202C939.001 -24.5304 926.728 -28.0525 916.843 -30.8078L910.645 -32.5332C900.34 -35.4248 887.686 -39.1567 875.42 -43.5686C862.821 -48.1018 851.138 -53.5154 840.671 -59.6688L839.189 -60.5495C828.575 -66.9267 818.037 -74.7962 807.862 -83.9433C798.111 -92.7161 788.874 -102.068 781.511 -109.725L775.909 -115.572C768.661 -123.12 759.698 -132.29 750.35 -141.188C740.353 -150.684 730.177 -159.451 720.111 -167.245C710.52 -174.668 699.976 -182.01 687.872 -189.688C681.025 -194.001 674.061 -198.308 667.257 -202.507L664.352 -204.299C661.158 -206.27 657.965 -208.24 654.765 -210.221L541.91 -277.72L557.109 -286.143ZM574.332 -295.692L704.604 -217.782C707.29 -216.038 709.985 -214.304 712.684 -212.573L716.733 -209.977C723.542 -205.616 730.583 -201.107 737.438 -196.541C747.309 -189.966 757.391 -182.812 767.435 -175.253L769.443 -173.736C779.008 -166.484 788.44 -158.995 796.25 -152.718L804.091 -146.401C812.077 -139.981 821.892 -132.211 831.949 -124.737C843.157 -116.399 853.955 -109.138 864.879 -102.616C875.832 -96.0644 887.322 -89.9902 900.001 -84.0463L902.07 -83.0803C912.419 -78.2704 922.797 -73.773 931.528 -70.0652L941.476 -65.8603C953.932 -60.5793 963.846 -56.2301 973.122 -51.9833C985.466 -46.3093 997.414 -40.3866 1008.63 -34.3777C1014.08 -31.4579 1019.56 -28.4314 1024.94 -25.4351L1036.75 -18.8455C1038.9 -17.6468 1041.05 -16.4537 1043.2 -15.2713L1172.21 61.8871L1171.91 79.2173L1069.34 17.8732L1062.29 13.7665L1055.24 9.65158C1050.8 7.05984 1046.36 4.4668 1041.92 1.8812L1035.24 -1.99158L1032.93 -3.31833C1020.73 -10.3062 1010.33 -15.8995 1000.39 -20.8349C988.878 -26.5401 976.598 -32.0018 963.887 -37.0705L961.784 -37.9044C950.569 -42.3298 939.453 -46.3844 930.267 -49.6643L920.939 -52.986C911.361 -56.4213 899.863 -60.6851 888.553 -65.408C876.339 -70.506 864.882 -76.1926 854.479 -82.3208L852.741 -83.354C842.45 -89.5374 832.439 -96.5677 822.196 -104.805L820.915 -105.841C812.835 -112.406 804.385 -119.702 793.856 -129.215L786.525 -135.859C778.99 -142.665 769.89 -150.765 760.663 -158.536C750.293 -167.267 739.777 -175.448 729.401 -182.854L727.712 -184.053C718.653 -190.454 708.74 -196.976 696.698 -204.461C692.409 -207.114 688.117 -209.752 683.825 -212.383L677.391 -216.326C672.761 -219.161 668.135 -221.994 663.508 -224.842L559.133 -287.268L574.332 -295.692ZM1169.84 197.075L1050.67 125.801L1042.64 121.046C1036.9 117.644 1031.16 114.242 1025.41 110.844L1016.78 105.751L1014.56 104.448C1004.82 98.7452 993.653 92.3949 981.928 86.97C969.683 81.3638 956.59 77.1869 943.013 74.5532C930.302 72.0871 916.16 70.4178 899.777 69.45C894.641 69.1465 889.425 68.8736 884.273 68.6134L871.57 67.9789C866.067 67.7009 860.496 67.4071 855.016 67.0759C838.733 66.0934 824.764 64.2869 812.311 61.556C798.385 58.5014 785.869 53.6901 775.11 47.2581L774.894 47.1283C764.217 40.7125 754.144 32.0309 744.959 21.3223C736.658 11.6487 728.502 0.26149 720.022 -13.4883C716.437 -19.2939 712.844 -25.2456 709.336 -31.0741L704.084 -39.8006C701.728 -43.7094 699.34 -47.653 696.965 -51.5262C688.453 -65.4102 680.402 -77.0073 672.352 -86.98C663.701 -97.6987 653.99 -107.225 643.486 -115.298C632.862 -123.417 621.575 -130.508 610.96 -136.963C603.498 -141.494 596.038 -146 588.589 -150.493L577.793 -157.003L455.777 -229.977L470.968 -238.397L585.494 -169.904L586.24 -169.455C597.021 -162.953 607.833 -156.434 618.647 -149.862L622.008 -147.809C631.589 -141.936 641.609 -135.567 651.165 -128.565C661.868 -120.671 671.696 -111.626 680.377 -101.683C688.75 -92.0939 696.993 -80.9762 705.578 -67.6961C709.37 -61.8303 713.163 -55.797 716.886 -49.8345L720.583 -43.9044C723.4 -39.3852 726.217 -34.8637 729.052 -30.3673L730.465 -28.1401C738.686 -15.2732 746.502 -4.58951 754.311 4.46291C763.41 15.0156 773.36 23.6378 783.903 30.1086L784.981 30.7614C795.934 37.3067 808.641 42.2131 822.748 45.3436C833.581 47.7475 845.673 49.4995 859.56 50.6726C861.544 50.8403 863.564 50.9961 865.623 51.1401L874.309 51.7268L888.116 52.6344C895.373 53.1157 902.729 53.627 909.935 54.2253C925.803 55.5439 939.609 57.6118 952.139 60.5479C965.083 63.5851 977.803 68.091 989.944 73.9408C1000.81 79.2033 1011.16 85.0293 1023.21 92.0981L1028.1 94.979L1036.37 99.8615L1045.31 105.156C1049.74 107.785 1054.11 110.38 1058.36 112.906L1170.15 179.763L1169.84 197.075ZM1169.72 206.039L1160.34 211.239L1041.93 140.421L1037.22 137.626C1030.75 133.787 1024.28 129.945 1017.79 126.108L1008.06 120.358C997.791 114.305 985.767 107.377 973.067 101.771C961.011 96.4854 947.741 92.5997 933.625 90.2207C920.951 88.0835 906.677 86.6409 889.99 85.8087C886.864 85.6539 883.734 85.5067 880.603 85.362L868.269 84.7934C860.587 84.4328 852.8 84.0412 845.171 83.5531C829.092 82.5241 815.175 80.6341 802.624 77.7781C789.157 74.7076 776.973 70.0173 766.392 63.8316L765.291 63.1788C754.607 56.7589 744.503 48.1331 735.257 37.5401C726.831 27.8877 718.623 16.5862 710.163 2.99095C704.658 -5.85585 699.184 -15.0353 693.89 -23.9143C691.655 -27.664 689.419 -31.4106 687.178 -35.1433C678.641 -49.3499 670.726 -61.163 662.978 -71.2571C654.319 -82.5313 644.785 -92.3558 634.639 -100.461C624.228 -108.716 612.908 -115.86 602.225 -122.35C594.46 -127.061 586.697 -131.747 578.946 -136.419L569.053 -142.38L449.463 -213.902L449.683 -226.597L453.744 -228.849L576.751 -155.283L577.65 -154.741C588.38 -148.27 599.141 -141.781 609.907 -135.248C620.503 -128.802 631.755 -121.73 642.256 -113.705C652.632 -105.73 662.231 -96.3127 670.782 -85.7162C678.772 -75.8167 686.776 -64.2902 695.248 -50.4756C697.617 -46.6107 700 -42.6744 702.352 -38.7724L709.364 -27.1234C712.314 -22.2303 715.312 -17.2815 718.306 -12.4317C726.862 1.43643 735.079 12.9046 743.427 22.6313C752.516 33.2204 762.466 41.8643 773.02 48.3429L774.071 48.9798C785.025 55.5265 797.742 60.4166 811.869 63.5142C824.416 66.2677 838.488 68.0879 854.883 69.0796C861.454 69.4755 868.153 69.8184 874.708 70.1458L884.123 70.6152C889.282 70.8753 894.507 71.1489 899.648 71.4521C915.946 72.4162 930.003 74.0747 942.62 76.5228C956.062 79.1317 969.003 83.2605 981.078 88.7938C992.426 94.0434 1003.15 100.061 1015.76 107.481C1027.04 114.131 1038.29 120.807 1049.52 127.471L1169.84 199.428L1169.72 206.039ZM1143.08 220.784L1033.16 155.041C1021.9 148.344 1010.62 141.642 999.304 134.961L996.791 133.481C986.679 127.543 975.872 121.457 964.22 116.501C952.261 111.452 938.886 107.742 924.466 105.474C911.769 103.477 897.877 102.128 880.747 101.226L866.08 100.463C856.131 99.938 846.019 99.3639 836.164 98.5966C820.337 97.3655 806.542 95.276 793.988 92.2094C780.304 88.868 767.878 83.8937 757.051 77.426L756.814 77.2833C746.085 70.8366 735.918 62.3177 726.592 51.9611C717.987 42.4015 709.66 31.3025 701.137 18.0281C694.975 8.42771 688.892 -1.58256 682.978 -11.3672L677.936 -19.7129L676.649 -21.8333C668.757 -34.776 661.768 -45.278 654.838 -54.6088L653.826 -55.967C645.125 -67.5588 635.697 -77.5567 625.801 -85.6833C616.169 -93.5718 605.91 -100.207 593.471 -107.745C582.395 -114.451 571.329 -121.115 560.289 -127.757L449.104 -194.254L449.406 -211.592L568.008 -140.661L585.032 -130.397C590.408 -127.153 595.789 -123.901 601.171 -120.637L603.955 -118.94C613.745 -112.943 623.947 -106.374 633.377 -98.892C643.399 -90.8915 652.819 -81.1822 661.374 -70.0345L662.66 -68.3459C669.958 -58.6856 677.428 -47.4622 685.447 -34.1099C686.93 -31.6418 688.409 -29.1669 689.887 -26.6893L692.104 -22.9713C697.42 -14.0562 702.916 -4.83773 708.448 4.05111C716.973 17.7411 725.243 29.1268 733.733 38.8582C742.852 49.3141 752.817 57.8877 763.365 64.3617L764.472 65.0329C775.433 71.5837 788.113 76.5288 802.162 79.7311C814.798 82.6112 828.819 84.5155 845.026 85.5532C852.657 86.0414 860.44 86.4332 868.117 86.7937L875.749 87.1462C880.461 87.3632 885.172 87.5783 889.874 87.8119L892.618 87.9546C908.042 88.7954 921.367 90.1861 933.276 92.196C947.232 94.5478 960.344 98.3876 972.245 103.606C983.981 108.786 995.157 115.118 1004.89 120.828L1007.03 122.086C1013.32 125.793 1019.59 129.509 1025.86 133.226L1040.88 142.137L1158.29 212.358L1143.08 220.784ZM1125.87 230.347L990.632 149.462L987.203 147.479C977.549 141.909 966.826 135.899 955.45 131.172C943.594 126.245 930.196 122.577 915.628 120.27L913.873 119.998C902.112 118.204 889.13 116.865 873.289 115.811L863.724 115.184C851.828 114.396 839.712 113.538 827.96 112.374C812.433 110.835 798.802 108.472 786.286 105.15C772.801 101.57 760.448 96.458 749.572 89.959L749.314 89.804C738.543 83.332 728.298 74.9478 718.858 64.8812C710.037 55.4722 701.545 44.6448 692.897 31.7791C686.086 21.6424 679.491 11.182 673.082 0.907173L669.259 -5.23135C660.226 -19.744 652.512 -31.165 644.982 -41.1728C636.204 -52.8392 626.803 -62.879 617.041 -71.0104C606.525 -79.7704 594.856 -87.027 584.743 -93.142C573.667 -99.8395 562.6 -106.494 551.551 -113.137L448.766 -174.609L449.068 -191.94L559.266 -126.035C570.302 -119.395 581.366 -112.731 592.439 -106.026L594.806 -104.587C606.116 -97.6788 615.611 -91.4399 624.537 -84.1307C634.32 -76.0896 643.637 -66.2083 652.232 -54.7584L652.771 -54.0355L653.312 -53.3079C660.562 -43.5304 667.874 -32.4773 676.219 -18.6843L679.302 -13.5855C681.324 -10.2368 683.374 -6.85131 685.435 -3.45827C688.369 1.37196 691.333 6.22021 694.331 11.0163C695.073 12.2029 695.822 13.3689 696.567 14.5481L698.489 17.5944L699.458 19.1143C708.034 32.4768 716.425 43.6602 725.112 53.3068C734.302 63.5131 744.303 71.9625 754.857 78.4394L756.031 79.151C767.026 85.7201 779.639 90.7703 793.517 94.1604C806.182 97.2531 820.082 99.3588 836.014 100.599C845.882 101.366 855.998 101.941 865.949 102.466L880.648 103.232C897.668 104.123 911.494 105.466 924.159 107.458C938.418 109.7 951.637 113.365 963.445 118.35C975.939 123.664 987.511 130.324 998.293 136.691C1009.6 143.371 1020.88 150.072 1032.14 156.768L1141.07 221.915L1125.87 230.347ZM1108.63 239.885L981.888 164.082L978.463 162.089C968.818 156.491 958.106 150.45 946.747 145.711C934.959 140.791 921.611 137.046 907.074 134.581L905.442 134.308C894.221 132.46 881.656 130.948 866.222 129.588L863.942 129.39C858.813 128.951 853.728 128.51 848.687 128.049L846.005 127.801C843.768 127.592 841.543 127.377 839.324 127.157C837.393 126.965 835.468 126.768 833.549 126.565C832.151 126.418 830.755 126.267 829.364 126.113C827.733 125.931 826.105 125.745 824.483 125.553L820.396 125.061C805.157 123.153 791.714 120.478 779.295 116.883C766.009 113.037 753.736 107.778 742.818 101.255C731.899 94.7196 721.469 86.4296 711.83 76.592C702.812 67.3888 694.134 56.8713 685.301 44.439C684.091 42.7357 682.888 41.02 681.69 39.297C675.784 30.8008 669.975 22.0249 664.401 13.4974L659.737 6.34963C653.493 -3.18648 647.922 -11.3066 642.665 -18.5216L642.103 -19.2912C640.171 -21.9314 638.281 -24.4495 636.414 -26.8721C627.494 -38.4477 618.047 -48.4068 608.338 -56.4686C598.361 -64.7521 587.819 -71.4036 576.057 -78.6312L448.422 -154.963L448.726 -172.293L550.534 -111.406C561.567 -104.771 572.632 -98.1197 583.708 -91.4213L585.808 -90.1479C595.35 -84.3438 606.067 -77.5389 615.76 -69.4654C625.396 -61.4393 634.689 -51.5127 643.384 -39.9609L644.427 -38.5668C651.569 -28.9739 658.954 -17.9897 667.56 -4.16553L671.401 2.00071C677.838 12.3205 684.454 22.815 691.238 32.9033C699.948 45.8634 708.505 56.7731 717.398 66.2567C726.674 76.1517 736.724 84.4428 747.29 90.9239L748.546 91.6848C759.579 98.2794 772.104 103.462 785.772 107.091C798.39 110.443 812.124 112.824 827.761 114.372C840.764 115.661 854.192 116.574 867.282 117.432L871.965 117.737L875.499 117.975C890.994 119.054 903.723 120.424 915.314 122.255C929.711 124.531 942.956 128.155 954.681 133.027C967.301 138.271 979.166 145.143 989.621 151.197L1123.83 231.466L1108.63 239.885ZM1091.43 249.443L973.147 178.704L968.561 176.025C959.227 170.594 948.936 164.809 938.12 160.167C926.281 155.085 913.417 151.262 898.792 148.478L897.242 148.186C885.831 146.065 873.398 144.286 857.331 142.474L851.617 141.832C839.636 140.477 826.261 138.877 813.369 136.887C798.422 134.578 785.172 131.577 772.86 127.71C759.786 123.607 747.593 118.204 736.622 111.647L736.348 111.482L734.996 110.643C734.161 110.13 733.327 109.619 732.497 109.088C724.759 104.114 717.253 98.337 710.109 91.8512C709.748 91.5236 709.383 91.2073 709.023 90.8757L708.779 90.6437C707.63 89.579 706.488 88.4987 705.359 87.3965C696.146 78.4124 687.271 68.2195 678.226 56.2328L676.718 54.226C669.447 44.5042 662.364 34.4236 654.182 22.5612L652.086 19.5243C642.83 6.14655 635.389 -3.94838 628.107 -13.0141C618.866 -24.5155 609.572 -34.0078 599.693 -42.033C589.588 -50.2413 578.613 -57.1108 567.313 -64.0099L448.085 -135.315L448.388 -152.651L575.025 -76.9134L578.877 -74.5378C589.033 -68.2437 598.287 -62.2115 607.066 -54.9219C616.663 -46.9518 626.005 -37.1008 634.835 -25.6426C637.342 -22.3889 639.891 -18.963 642.527 -15.3022L643.409 -14.0732C648.141 -7.45314 653.166 -0.057251 658.733 8.4696L662.296 13.936C668.129 22.8689 674.242 32.1158 680.531 41.1355C681.577 42.6354 682.625 44.126 683.675 45.6043C692.566 58.1214 701.31 68.7172 710.406 77.9986C719.782 87.5665 729.893 95.6949 740.481 102.181L741.798 102.979C752.863 109.591 765.292 114.917 778.743 118.811C791.262 122.436 804.808 125.131 820.153 127.052L821.801 127.244C824.245 127.543 826.701 127.829 829.172 128.103C830.535 128.254 831.904 128.402 833.273 128.547C835.23 128.754 837.194 128.955 839.165 129.15L842.436 129.47L847.16 129.917L848.604 130.049C852.371 130.393 856.151 130.73 859.959 131.062L866.047 131.588C882.169 133.008 895.151 134.595 906.743 136.561C921.132 139.001 934.332 142.702 945.982 147.564C958.611 152.833 970.447 159.735 980.88 165.82L1106.62 241.021L1091.43 249.443ZM1056.97 268.53L955.673 207.951L952.204 205.901C949.911 204.549 947.656 203.225 945.423 201.923L942.731 200.357L941.156 199.448L938.485 197.916C932.748 194.643 927.081 191.518 921.261 188.503L921.195 188.471C908.644 183.054 895.728 178.634 882.804 175.331L880.57 174.768C870.329 172.217 859.12 169.867 844.904 167.291L835.449 165.597C833.911 165.319 832.397 165.045 830.902 164.772L827.169 164.085L824.654 163.616L821.063 162.939L819.267 162.595L815.992 161.96L814.041 161.575L810.744 160.917L808.956 160.551L805.431 159.823C804.482 159.624 803.537 159.419 802.59 159.215C801.855 159.058 801.117 158.903 800.384 158.742C785.997 155.598 773.131 151.945 761.049 147.579C757.868 146.43 754.73 145.213 751.64 143.933C742.468 140.13 733.714 135.751 725.507 130.866L725.227 130.704C715.307 124.724 705.618 117.724 696.441 109.81L695.297 108.816C694.692 108.285 694.081 107.763 693.479 107.225C683.926 98.6737 674.661 89.1225 665.154 78.0226C656.682 68.1367 648.299 57.6846 640.433 47.7386L637.403 43.9053C627.571 31.5035 619.702 22.1458 612.048 13.7451C603.137 3.97025 593.29 -5.27924 582.727 -13.7895C572.87 -20.6532 562.593 -27.0272 553.377 -32.6164L549.644 -34.8736L447.396 -96.0224L447.698 -113.361L557.54 -47.6699L560.896 -45.6288C570.461 -39.7961 580.46 -33.5314 590.103 -26.5848C600.299 -17.9142 609.846 -8.36774 618.483 1.78958L619.962 3.53986C626.883 11.7787 634.112 21.0511 643.024 33.1238L644.309 34.8678C652.39 45.8539 661.093 57.5486 669.991 68.6183C679.315 80.2208 688.448 90.1582 697.916 98.9993C707.816 108.246 718.413 116.285 729.419 122.898L729.779 123.113C740.909 129.763 753.155 135.367 766.181 139.768C778.47 143.922 791.616 147.274 806.37 150.015C819.094 152.377 831.898 154.332 847.053 156.503L848.576 156.721C865.684 159.166 878.551 161.405 890.297 163.978C903.437 166.857 916.457 170.87 929.001 175.907C940.573 181.686 951.871 188.263 963.383 195.05L1072.16 260.108L1056.97 268.53ZM1037.7 279.214L1022.51 287.636L938.181 237.204C927.894 231.048 917.785 225.031 907.507 219.227L904.032 217.277C892.27 211.457 879.914 206.136 867.265 201.447C855.562 197.692 843.209 194.129 829.557 190.568L821.297 188.427C810.335 185.58 799.14 182.628 788.095 179.454C774.184 175.455 761.685 171.177 749.883 166.378C737.944 161.52 726.503 155.885 715.85 149.615L713.971 148.498C703.082 141.956 692.41 134.381 682.245 125.979C672.434 117.873 662.792 108.935 652.764 98.6538L650.885 96.723C643.082 88.6765 635.546 80.5791 626.863 71.1842L624.757 68.9039C614.764 58.0853 605.5 48.5477 596.403 39.7178C586.433 30.8481 576.054 22.5168 565.513 14.9265C555.219 8.25646 544.596 1.82391 534.492 -4.22841L446.703 -56.7315L447.005 -74.0609L542.584 -16.8967C553.874 -10.1223 563.505 -4.1927 572.985 2.14617C583.219 9.91364 593.314 18.5742 602.956 27.8544L604.731 29.7549C612.449 38.049 620.49 47.1165 629.221 57.3687L635.103 64.2782C643.037 73.5702 650.125 81.7125 657.451 89.7354C667.287 100.501 676.798 109.802 686.53 118.169C691.629 122.553 696.875 126.696 702.231 130.576C703.109 131.211 703.993 131.83 704.878 132.452L706.182 133.375C707.116 134.022 708.056 134.651 708.996 135.281L710.275 136.146L711.205 136.749L712.136 137.349C712.946 137.873 713.755 138.399 714.568 138.912L715.004 139.18C716.118 139.877 717.233 140.57 718.355 141.244L718.808 141.515C729.98 148.185 742.064 154.033 754.723 158.896C766.759 163.523 779.518 167.51 793.726 171.084C806.519 174.304 819.763 177.224 831.476 179.752L834.371 180.375C849.225 183.57 862.407 186.729 874.62 190.019C887.531 194.242 900.034 199.155 911.781 204.622C922.868 210.611 933.676 216.995 943.862 223.088L1037.7 279.214ZM1003.25 298.3L988.054 306.726L910.599 260.406C902.383 255.5 894.587 250.866 886.743 246.263C875.165 239.89 863.231 233.887 851.241 228.408C839.449 223.497 827.183 218.752 813.73 213.898L800.71 209.356C792.381 206.444 783.932 203.469 775.633 200.455C762.062 195.523 749.927 190.622 738.535 185.472C726.327 179.953 714.534 173.806 703.483 167.204C692.4 160.562 681.441 153.137 670.833 145.029C660.9 137.441 650.879 129.113 640.197 119.57C632.147 112.379 624.057 104.974 616.172 97.7387L610.522 92.5521C600.029 83.1152 590.147 74.6121 580.284 66.5343C569.938 58.6263 559.15 50.9926 548.193 43.8338L545.198 42.0016C534.711 35.5989 524.208 29.3176 514.846 23.7223L446.021 -17.437L446.324 -34.7767L522.626 10.8556C530.537 15.5855 538.313 20.2535 545.993 24.9669L548.917 26.7714L551.832 28.5816C553.143 29.396 554.461 30.2065 555.766 31.0273C566.38 38.2935 576.926 46.2252 587.082 54.5755C596.657 63.0822 606.484 72.3279 616.286 82.0549L625.493 91.1918C631.967 97.6089 638.571 104.115 645.171 110.432L646.198 111.409L647.223 112.377C655.865 120.568 664.18 127.89 672.491 134.625L673.738 135.631C674.282 136.068 674.827 136.513 675.372 136.946C685.412 144.928 695.85 152.246 706.503 158.675L708.03 159.59C719.152 166.235 731.086 172.309 743.498 177.643C755.136 182.643 767.51 187.253 781.325 191.737C784.069 192.628 786.831 193.51 789.601 194.386C791.08 194.854 792.564 195.314 794.046 195.776C795.282 196.163 796.518 196.553 797.755 196.937C801.162 197.994 804.566 199.04 807.947 200.076L820.26 203.839C833.577 207.917 846.478 212.257 858.568 216.729C870.799 221.802 882.88 227.454 894.443 233.51C904.439 239.245 914.225 245.059 924.84 251.405L1003.25 298.3ZM446.367 -37.0807L446.67 -54.411L531.301 -3.79742C541.927 2.55835 553.24 9.36748 564.378 16.5811C574.818 24.1012 585.144 32.3894 595.035 41.187C604.068 49.9585 613.307 59.4695 623.281 70.2652L627.846 75.2049C635.222 83.175 643.25 91.7838 651.325 100.055C661.408 110.39 671.102 119.376 680.962 127.526C691.203 135.989 701.951 143.619 712.919 150.209L713.431 150.515C724.561 157.167 736.57 163.128 749.122 168.237C760.989 173.065 773.554 177.366 787.535 181.38C800.932 185.227 814.959 188.86 827.333 192.065L830.501 192.891C843.601 196.334 855.452 199.765 866.604 203.341C879.15 207.994 891.441 213.286 903.093 219.05C914.533 225.433 925.728 232.092 937.142 238.923L1020.48 288.763L1005.29 297.182L921.887 247.31C912.934 241.969 904.871 237.2 896.568 232.423L895.4 231.754C883.792 225.669 871.656 219.991 859.295 214.865C847.133 210.367 834.196 206.014 820.842 201.924L808.155 198.047C804.932 197.06 801.688 196.063 798.441 195.055C792.922 193.343 787.395 191.603 781.939 189.832C768.182 185.367 755.866 180.778 744.285 175.802C731.953 170.505 720.101 164.472 709.052 157.871C698.033 151.296 687.094 143.704 676.619 135.382L675.734 134.673L674.849 133.958C666.401 127.16 657.956 119.765 649.173 111.47L647.432 109.823C647.141 109.547 646.849 109.269 646.557 108.989C639.945 102.656 633.322 96.1328 626.83 89.698L617.7 80.6371C607.865 70.8804 598.012 61.6106 588.385 53.0577C578.152 44.6435 567.559 36.6769 556.867 29.3579L555.52 28.5205C546.211 22.6913 536.794 17.0051 527.197 11.2591L515.362 4.1797L446.367 -37.0807ZM447.358 -93.7153L548.612 -33.1608L552.335 -30.9093C561.524 -25.3365 571.765 -18.9851 581.524 -12.1917C591.95 -3.78993 601.721 5.38868 610.567 15.0903L611.581 16.2069C618.691 24.0673 626.093 32.885 635.203 44.3542L640.558 51.1209C647.941 60.4322 655.745 70.1183 663.631 79.3228C673.202 90.4914 682.528 100.106 692.141 108.713C692.663 109.181 693.195 109.634 693.721 110.096C694.468 110.751 695.21 111.412 695.963 112.056L696.25 112.295C704.674 119.47 713.503 125.894 722.579 131.441L724.02 132.313L724.484 132.585C732.762 137.516 741.603 141.938 750.873 145.78C753.993 147.074 757.161 148.302 760.372 149.462C772.51 153.854 785.459 157.528 799.96 160.698L801.059 160.935L805.018 161.779L806.723 162.132C807.932 162.383 809.143 162.633 810.362 162.88L813.61 163.529L816.288 164.055L819.467 164.67L822.718 165.287L825.716 165.85L830.695 166.767L835.764 167.686L844.548 169.261C859.763 172.017 871.513 174.512 882.313 177.271C895.093 180.535 907.897 184.917 920.372 190.296L922.276 191.296C923.07 191.714 923.867 192.127 924.657 192.549L925.763 193.148C926.832 193.721 927.9 194.295 928.963 194.877L930.053 195.481C931.109 196.063 932.165 196.645 933.218 197.235L934.828 198.145C935.705 198.638 936.581 199.131 937.456 199.631L940.5 201.379L942.579 202.581C946.592 204.91 950.604 207.279 954.639 209.672L1054.94 269.656L1039.74 278.079L946.934 222.575C936.068 216.072 924.474 209.191 912.66 202.814C900.814 197.302 888.227 192.355 875.202 188.094C862.905 184.782 849.69 181.614 834.802 178.412L829.877 177.35C818.304 174.846 806.19 172.153 794.224 169.138C780.116 165.586 767.432 161.624 755.449 157.021C742.876 152.191 730.895 146.394 719.842 139.789C708.832 133.234 698.038 125.41 687.842 116.644C678.148 108.309 668.693 99.0626 658.936 88.3793C650.62 79.2758 642.59 69.9627 634.994 61.0479L629.741 54.879C620.691 44.2894 612.387 34.9744 604.387 26.4417C594.622 17.0464 584.466 8.3332 574.155 0.509087C563.852 -6.37778 553.474 -12.7282 541.085 -20.1421L447.056 -76.3742L447.358 -93.7153ZM566.284 -62.2906C577.53 -55.4239 588.451 -48.59 598.437 -40.4721C608.21 -32.5278 617.408 -23.134 626.553 -11.7535L627.52 -10.5443C634.461 -1.83171 641.623 7.91972 650.446 20.6696L655.053 27.34C662.765 38.4799 669.572 48.0889 676.634 57.446C685.741 69.512 694.682 79.7794 703.966 88.8355C705.945 90.768 707.964 92.6259 710.001 94.4427C710.493 94.881 710.98 95.3323 711.476 95.7641L712.4 96.5481C718.506 101.805 724.849 106.558 731.374 110.744C732.385 111.395 733.406 112.019 734.427 112.644L735.599 113.371C746.707 120.009 759.043 125.477 772.266 129.625C784.673 133.522 798.02 136.547 813.068 138.87C824.87 140.693 837.066 142.187 848.231 143.467L858.2 144.593C874.442 146.442 886.923 148.261 898.423 150.45C912.893 153.202 925.622 156.983 937.335 162.012C949.876 167.394 961.704 174.326 972.133 180.439L1089.38 250.562L1074.18 258.983L964.406 193.327L960.821 191.218C950.156 184.958 940.261 179.289 929.782 174.059C917.124 168.975 903.982 164.924 890.724 162.02L889.205 161.691C878.527 159.395 866.898 157.361 852.082 155.2L843.262 153.932C831.844 152.28 819.16 150.353 806.735 148.044C792.074 145.319 779.016 141.991 766.817 137.868C753.928 133.511 741.811 127.969 730.804 121.391L730.552 121.24C729.959 120.882 729.37 120.507 728.78 120.142L727.347 119.261C727.109 119.113 726.871 118.964 726.634 118.812C720.616 114.972 714.734 110.702 709.033 106.045L706.789 104.199C706.414 103.884 706.047 103.555 705.673 103.235C703.515 101.387 701.378 99.4939 699.279 97.5328C689.902 88.7791 680.831 78.9098 671.549 67.3603C663.3 57.0965 655.168 46.2288 647.545 35.8851L645.919 33.677C635.736 19.8302 627.744 9.59503 620.005 0.488876C611.314 -9.73949 601.689 -19.362 591.335 -28.1628C580.434 -36.0192 569.174 -42.9544 558.57 -49.3887L447.736 -115.673L448.041 -133.007L566.284 -62.2906ZM4.64389 113.595L4.42439 126.309L4.40725 126.299L4.02396 148.25L4.02824 148.252L3.34415 187.539L3.34844 187.542L3.04592 204.883L3.04163 204.881L2.65748 226.831L2.6592 226.832L2.31543 246.48L2.31886 246.482L2.01582 263.836L2.00725 263.831L1.6243 285.783L1.63201 285.788L1.32899 303.118L1.32556 303.116L0.940552 325.066L81.887 373.479C89.0699 377.787 96.6051 382.332 104.064 386.905C114.955 394.022 125.703 401.626 135.984 409.484C145.796 417.52 155.656 426.003 166.117 435.413L168.814 437.89C177.626 445.979 186.738 454.344 195.806 462.444C206.525 472.021 216.585 480.38 226.559 488.002C236.459 495.565 246.685 502.571 256.995 508.852L259.397 510.302C270.514 516.944 282.374 523.125 294.651 528.675C306.09 533.846 318.272 538.767 331.891 543.716C340.199 546.734 348.654 549.712 356.988 552.625L370.001 557.166C383.414 562.005 395.651 566.737 407.381 571.623C419.294 577.068 431.184 583.048 442.696 589.383L445.682 591.138C453.147 595.533 460.634 599.99 468.541 604.715L544.956 650.415L562.179 640.869L562.188 640.874L581.435 630.206L581.433 630.204L598.65 620.661L598.647 620.659L615.893 611.1L615.891 611.098L633.108 601.555L633.107 601.554L648.305 593.129L648.32 593.138L667.569 582.468L667.552 582.458L682.757 574.034L682.768 574.041L702.017 563.361L702.006 563.355L717.225 554.92L717.239 554.929L728.638 548.61L728.797 539.661L728.764 539.641L729.066 522.315L729.087 522.327L729.47 500.375L729.452 500.365L729.756 483.017L729.773 483.028L730.156 461.075L730.152 461.073L730.454 443.738L730.457 443.74L730.84 421.789L730.829 421.782L731.173 402.147L601.139 324.376C598.256 322.79 595.38 321.191 592.505 319.588L582.846 314.197C578.358 311.697 573.804 309.176 569.251 306.711L566.519 305.239C555.263 299.212 543.278 293.271 530.897 287.579L527.286 285.936C518.527 281.972 509.019 277.832 497.261 272.86L490.883 270.168C481.277 266.1 469.44 260.99 457.79 255.523C445.172 249.609 433.742 243.566 422.846 237.05C412.413 230.835 402.168 223.964 391.535 216.116L390.082 215.04C380.092 207.615 370.334 199.893 362.38 193.499L354.442 187.103C346.621 180.817 337.175 173.317 327.592 166.052C316.851 157.908 306.05 150.212 295.488 143.176C290.334 139.743 285.081 136.346 279.901 133.021L274.752 129.72C270.704 127.127 266.66 124.536 262.603 121.904L131.311 43.3817L96.8621 62.4779L96.8603 62.4768L43.1521 92.2473L43.1581 92.2509L27.951 100.68L27.9459 100.676L4.64389 113.595Z" fill="url(#paint0_linear_0_54)"/>
<defs>
<linearGradient id="paint0_linear_0_54" x1="7.13317" y1="218.853" x2="484.144" y2="776.216" gradientUnits="userSpaceOnUse">
<stop stop-color="#5D5DFF" stop-opacity="0.01"/>
<stop offset="0.538482" stop-color="#5D5DFF" stop-opacity="0.32"/>
<stop offset="1" stop-color="#5D5DFF" stop-opacity="0.01"/>
</linearGradient>
</defs>
</svg>
